<?xml version="1.0" encoding="utf-8"?>
<!-- Generator: Adobe Illustrator 24.1.0, SVG Export Plug-In . SVG Version: 6.00 Build 0)  -->
<svg version="1.1" id="Ebene_1" xmlns="http://www.w3.org/2000/svg" xmlns:xlink="http://www.w3.org/1999/xlink" x="0px" y="0px"
	 viewBox="0 0 841.9 210" style="enable-background:new 0 0 841.9 210;" xml:space="preserve">
<style type="text/css">
	.st0{fill:none;stroke:#5A372E;stroke-width:2.8347;stroke-miterlimit:10;}
	.st1{fill:#5A372E;}
	.st2{fill:none;stroke:#5A372E;stroke-width:2.8226;stroke-miterlimit:10;}
</style>
<g>
	<path class="st0" d="M-38,469.5c-1-13.3,0.4-197.6,98.1-312.6"/>
	<path class="st1" d="M57.3,195.3c-3.5,4.9-15.9,21.1-19.1,23.9c-3.3,2.9-13.2,6.4-19.1,9.1c-10,4.5-10.6,13.1-15.3,24.9
		c-1,2.6,19.8-2.8,27.2-16.9c7.4-14.1,8-16.6,14.8-25.3c6.8-8.7,12-14.9,14.7-19.8C63.5,186,60.9,190.4,57.3,195.3z M20.1,239.5
		c-3.9,3.8-11.7,10.4-11.9,9c-0.5-2.7,1.9-4.3,1.9-4.3c3.6-2.4,10.4-6.5,11.9-7.6C23.5,235.5,24,235.7,20.1,239.5z"/>
	<path class="st1" d="M75.9,170.8c-4,4.5-17.7,19.5-21.2,22.1c-3.5,2.6-13.7,5.2-19.8,7.3c-10.4,3.6-11.8,12.1-17.5,23.4
		c-1.3,2.5,20-1,28.6-14.4c8.6-13.4,9.5-15.8,17.1-23.8c7.6-8.1,13.3-13.7,16.5-18.3C82.9,162.1,79.8,166.2,75.9,170.8z M34.8,211.4
		c-4.2,3.4-12.6,9.3-12.7,7.9c-0.2-2.7,2.3-4.1,2.3-4.1c3.8-2.1,10.9-5.6,12.6-6.5C38.6,207.7,39,208,34.8,211.4z"/>
	<path class="st1" d="M86,148.8c-3.6,4.1-16,17.7-19.2,20c-3.2,2.3-12.4,4.7-17.9,6.6c-9.4,3.3-10.6,11-15.8,21.1
		c-1.1,2.3,18.1-0.9,25.9-13c7.8-12.1,8.6-14.3,15.4-21.6c6.8-7.3,12.1-12.4,14.9-16.6C92.3,141,89.5,144.7,86,148.8z M48.8,185.6
		c-3.8,3.1-11.4,8.4-11.5,7.2c-0.2-2.4,2-3.7,2-3.7c3.4-1.9,9.9-5,11.4-5.9C52.2,182.3,52.6,182.6,48.8,185.6z"/>
	<path class="st1" d="M98.9,129.2c-3.3,3.6-14.5,15.3-17.4,17.2c-2.9,2-11.1,3.9-16,5.5c-8.9,2.8-10.5,9.4-14.4,18.3
		c-0.9,2,16-0.4,23.1-10.9c7.1-10.6,7.9-12.4,14.1-18.7c6.2-6.3,10.9-10.7,13.5-14.3C104.7,122.3,102.2,125.6,98.9,129.2z
		 M65.3,160.8c-3.5,2.6-10.2,7.2-10.3,6.1c-0.1-2.2,1.9-3.3,1.9-3.3c3-1.6,8.8-4.2,10.2-5C68.4,158,68.8,158.2,65.3,160.8z"/>
	<path class="st1" d="M7.3,166.2c-1.6,5.4-2.3,13.4-3.6,24.4c-1.4,11-2.7,13.2-7.5,28.4c-4.9,15.2,6,33.8,7.2,31.2
		c5-11.6,10.7-18,6.9-28.4c-2.2-6-6.7-15.6-7-19.9c-0.3-4.3,2.5-24.5,3.5-30.4C7.6,165.5,8.9,160.5,7.3,166.2z M2.3,225.6
		c0.3,1.8,2.2,9.6,3,13.8c0,0,0.5,2.8-1.8,4.4c-1.2,0.8-1.9-9.4-2-14.8C1.4,223.6,1.9,223.7,2.3,225.6z"/>
	<path class="st1" d="M-3.7,195c-1.6,5.4-2.3,13.4-3.6,24.4c-1.4,11-2.7,13.2-7.5,28.4c-4.9,15.2,6,33.8,7.2,31.2
		c5-11.6,10.7-18,6.9-28.4c-2.2-6-6.7-15.6-7-19.9c-0.3-4.3,2.5-24.5,3.5-30.4C-3.3,194.3-2,189.3-3.7,195z M-8.7,254.4
		c0.3,1.8,2.2,9.6,3,13.8c0,0,0.5,2.8-1.8,4.4c-1.2,0.8-1.9-9.4-2-14.8C-9.5,252.4-9,252.6-8.7,254.4z"/>
	<path class="st1" d="M35.4,140.2c-2.5,5-4.7,12.8-8.1,23.3c-3.4,10.5-5,12.4-12.6,26.5c-7.6,14-0.4,34.3,1.2,32
		c7.1-10.4,13.9-15.7,12-26.6c-1.1-6.3-3.7-16.6-3.2-20.9c0.5-4.3,7-23.6,9.1-29.2C35.9,139.5,38.1,134.9,35.4,140.2z M19.4,197.6
		c0,1.9,0.4,9.8,0.4,14.1c0,0-0.1,2.8-2.5,4c-1.3,0.6-0.1-9.6,0.8-14.9C18.9,195.5,19.4,195.7,19.4,197.6z"/>
	<path class="st1" d="M49.6,120.2c-2.3,4.5-4.3,11.6-7.3,21.1c-3.1,9.5-4.6,11.3-11.4,23.9c-6.9,12.7-0.3,31.1,1.1,29
		c6.4-9.4,12.6-14.2,10.9-24c-1-5.7-3.3-15-2.9-18.9c0.5-3.9,6.4-21.3,8.2-26.5C50.1,119.6,52.1,115.4,49.6,120.2z M35.2,172.1
		c0,1.7,0.3,8.9,0.3,12.8c0,0-0.1,2.6-2.3,3.6c-1.2,0.5-0.1-8.6,0.7-13.5C34.8,170.2,35.2,170.4,35.2,172.1z"/>
	<path class="st1" d="M63.6,103.4c-1.9,4-3.5,10.3-6,18.7c-2.5,8.5-3.8,10-9.6,21.4c-5.8,11.3,0.2,27.3,1.6,25.5
		c5.9-7.8,10.9-12.3,9.1-21.5c-1-5-3.3-13.2-2.9-16.6c0.4-3.5,5.2-19,6.7-23.5C63.9,102.9,65.6,99.1,63.6,103.4z M51.9,149.6
		c0,1.5,0.5,7.9,0.6,11.3c0,0,0,2.3-2,3.2c-1,0.5-0.3-7.6,0.4-11.9C51.5,147.8,51.9,148.1,51.9,149.6z"/>
	<path class="st1" d="M93.2,100.4c-3.2,3.2-6.7,8.5-11.9,15.7c-5.2,7.1-6.9,8.2-16.2,17c-9.2,8.8-8.9,25.8-7,24.6
		c8.2-5.3,14.4-7.9,15.7-17.2c0.7-5.1,1.3-13.5,2.8-16.6c1.5-3.1,11.2-16.2,14.2-19.9C93.7,100,96.5,97,93.2,100.4z M66.8,140
		c-0.5,1.4-2.2,7.6-3.2,10.8c0,0-0.8,2.1-2.9,2.4c-1.1,0.1,2.3-7.3,4.3-11.1C67,138.3,67.3,138.6,66.8,140z"/>
</g>
<g>
	<path class="st0" d="M256.4,498.5c-2.9-13-27.6-195.6,52.8-323.3"/>
	<path class="st1" d="M312,213.5c-2.8,5.3-12.7,23.1-15.6,26.4c-2.8,3.3-12.2,8.2-17.6,11.7c-9.3,5.9-8.7,14.5-11.6,26.8
		c-0.7,2.7,19.2-5.6,24.5-20.6c5.3-15,5.6-17.6,11.1-27.1c5.5-9.6,9.8-16.4,11.8-21.7C316.8,203.4,314.8,208.2,312,213.5z
		 M281.4,262.5c-3.4,4.3-10.1,12-10.5,10.6c-0.8-2.6,1.2-4.5,1.2-4.5c3.2-2.9,9.4-7.9,10.7-9.2C284.2,258.1,284.8,258.3,281.4,262.5
		z"/>
	<path class="st1" d="M326.9,186.6c-3.3,5.1-14.8,21.8-17.9,24.9c-3.1,3-12.9,7.1-18.6,10c-9.8,5.1-9.9,13.6-14,25.6
		c-0.9,2.7,19.7-3.8,26.3-18.3c6.6-14.5,7.2-17,13.5-26c6.3-9,11.2-15.5,13.7-20.5C332.6,177,330.2,181.5,326.9,186.6z M292,232.6
		c-3.7,4-11.1,11-11.4,9.6c-0.6-2.6,1.6-4.4,1.6-4.4c3.4-2.6,10-7.1,11.5-8.2C295.2,228.5,295.7,228.7,292,232.6z"/>
	<path class="st1" d="M333.8,163.5c-3,4.6-13.4,19.8-16.2,22.5c-2.8,2.7-11.6,6.4-16.8,9.1c-8.8,4.6-9,12.3-12.7,23.2
		c-0.8,2.4,17.8-3.4,23.8-16.5c6-13.1,6.5-15.4,12.2-23.5c5.7-8.2,10.2-14,12.4-18.5C338.9,154.8,336.7,158.9,333.8,163.5z
		 M302.2,205.1c-3.4,3.6-10.1,10-10.3,8.7c-0.5-2.4,1.5-4,1.5-4c3.1-2.3,9.1-6.4,10.4-7.4C305.1,201.4,305.5,201.6,302.2,205.1z"/>
	<path class="st1" d="M343.8,142.1c-2.7,4-12.2,17.2-14.8,19.5c-2.6,2.4-10.4,5.4-15,7.7c-8.4,4-9,10.8-11.7,20.2
		c-0.6,2.2,15.8-2.6,21.3-14.1c5.6-11.5,6.1-13.4,11.3-20.5c5.2-7.1,9.3-12.1,11.3-16.1C348.5,134.6,346.5,138.2,343.8,142.1z
		 M315,178.3c-3.1,3.1-9.1,8.6-9.3,7.5c-0.4-2.1,1.4-3.5,1.4-3.5c2.8-2,8.2-5.4,9.4-6.3C317.7,175,318.1,175.2,315,178.3z"/>
	<path class="st1" d="M258.3,191.8c-0.8,5.6-0.3,13.6-0.1,24.7c0.2,11-0.8,13.4-3.4,29.1c-2.7,15.7,10.8,32.6,11.5,29.9
		c3.3-12.2,8-19.4,2.8-29c-3.1-5.7-8.9-14.5-9.7-18.7c-0.9-4.3-1-24.6-0.8-30.6C258.6,191,259.2,185.9,258.3,191.8z M261.8,251.3
		c0.6,1.8,3.5,9.2,4.9,13.3c0,0,0.9,2.7-1.1,4.6c-1,1-3.2-9-4.1-14.4C260.6,249.4,261.2,249.5,261.8,251.3z"/>
	<path class="st1" d="M282.5,162.1c-1.8,5.3-2.9,13.3-4.7,24.2c-1.9,10.9-3.2,13-8.8,28c-5.5,15,4.5,34,5.7,31.5
		c5.6-11.3,11.5-17.5,8.1-28c-2-6.1-6-15.9-6.1-20.2c-0.1-4.4,3.6-24.3,4.9-30.2C282.9,161.4,284.4,156.4,282.5,162.1z M274.8,221.2
		c0.2,1.9,1.8,9.7,2.4,14c0,0,0.3,2.8-2,4.3c-1.2,0.8-1.5-9.4-1.3-14.9C274,219.1,274.6,219.3,274.8,221.2z"/>
	<path class="st1" d="M293.7,140.2c-1.6,4.8-2.6,12-4.3,21.9c-1.7,9.9-2.9,11.8-7.9,25.3c-5,13.5,4.1,30.8,5.2,28.5
		c5-10.3,10.4-15.9,7.4-25.3c-1.8-5.5-5.4-14.4-5.5-18.3c-0.1-3.9,3.3-22,4.4-27.4C294.1,139.6,295.5,135.1,293.7,140.2z
		 M286.8,193.7c0.2,1.7,1.6,8.8,2.1,12.6c0,0,0.3,2.6-1.8,3.9c-1.1,0.7-1.3-8.5-1.2-13.5C286.1,191.8,286.6,192,286.8,193.7z"/>
	<path class="st1" d="M305.1,121.7c-1.3,4.3-2,10.7-3.3,19.4c-1.3,8.7-2.3,10.5-6.5,22.5c-4.1,12,4.1,27,5.2,25.1
		c4.8-8.5,9.1-13.7,6-22.5c-1.7-4.8-5.1-12.6-5.2-16c-0.1-3.5,2.4-19.5,3.3-24.2C305.5,121.1,306.6,117.1,305.1,121.7z M300.1,169
		c0.2,1.5,1.6,7.7,2.2,11.1c0,0,0.3,2.3-1.5,3.5c-0.9,0.6-1.3-7.5-1.3-11.9C299.5,167.4,299.9,167.5,300.1,169z"/>
	<path class="st1" d="M334.1,114.5c-2.7,3.6-5.5,9.4-9.6,17.2c-4.1,7.8-5.7,9.1-13.6,19.1c-7.9,10-5.1,26.8-3.5,25.3
		c7.3-6.4,13.1-9.9,13.1-19.2c0-5.1-0.6-13.5,0.4-16.9c1-3.3,8.8-17.6,11.2-21.8C334.5,114,336.9,110.7,334.1,114.5z M313.6,157.4
		c-0.3,1.5-1.1,7.8-1.7,11.2c0,0-0.4,2.2-2.5,2.8c-1.1,0.3,1.2-7.5,2.7-11.6C313.5,155.7,313.9,156,313.6,157.4z"/>
</g>
<g>
	<path class="st0" d="M18.3,469c0.4-13.3,21.9-196.3,131.6-300"/>
	<path class="st1" d="M142.9,206.8c-4.1,4.5-18.1,19.2-21.6,21.7c-3.6,2.5-13.8,4.9-19.9,7c-10.5,3.4-12,11.9-17.9,23
		c-1.3,2.5,20-0.6,28.9-13.9c8.9-13.3,9.8-15.6,17.5-23.5c7.7-7.9,13.6-13.5,16.8-18C150.1,198.2,147,202.3,142.9,206.8z
		 M101.1,246.7c-4.3,3.3-12.7,9.1-12.8,7.7c-0.2-2.7,2.3-4.1,2.3-4.1c3.8-2,11-5.4,12.7-6.3C105,243.1,105.4,243.4,101.1,246.7z"/>
	<path class="st1" d="M164,184.4c-4.4,4.1-19.7,17.5-23.5,19.6c-3.8,2.2-14.2,3.7-20.5,5.1c-10.7,2.5-13,10.7-19.9,21.3
		c-1.5,2.3,20,1.2,30-11.2c10-12.4,11.2-14.7,19.6-21.8c8.4-7.2,14.7-12.2,18.4-16.4C172,176.5,168.5,180.3,164,184.4z M118.8,220.3
		c-4.6,2.9-13.5,7.9-13.5,6.5c0.1-2.7,2.7-3.9,2.7-3.9c4-1.7,11.5-4.3,13.2-5.1C122.9,217.1,123.4,217.4,118.8,220.3z"/>
	<path class="st1" d="M176.5,163.7c-4,3.7-17.8,15.8-21.3,17.8c-3.4,2-12.9,3.3-18.5,4.6c-9.7,2.2-11.8,9.7-18,19.3
		c-1.4,2.1,18.1,1.1,27.2-10.1c9.1-11.2,10.1-13.3,17.7-19.8c7.6-6.5,13.3-11,16.6-14.9C183.6,156.6,180.5,160,176.5,163.7z
		 M135.5,196.2c-4.2,2.6-12.2,7.1-12.2,5.9c0.1-2.5,2.4-3.5,2.4-3.5c3.6-1.5,10.4-3.9,11.9-4.6C139.3,193.3,139.7,193.6,135.5,196.2
		z"/>
	<path class="st1" d="M191.5,145.6c-3.6,3.2-16.1,13.6-19.1,15.2c-3.1,1.7-11.4,2.7-16.5,3.7c-9.2,1.8-11.4,8.2-16.3,16.6
		c-1.1,1.9,15.9,1.4,24.2-8.3c8.2-9.7,9.2-11.5,16-17.1c6.8-5.6,12-9.4,15-12.8C198,139.4,195.1,142.4,191.5,145.6z M154.7,173.4
		c-3.7,2.2-10.9,6-10.9,4.9c0.1-2.2,2.2-3,2.2-3c3.2-1.2,9.3-3.2,10.6-3.8C158,170.9,158.4,171.2,154.7,173.4z"/>
	<path class="st1" d="M96.4,172.4c-2.1,5.2-3.7,13.1-6.3,23.8C87.5,207,86,209,79.5,223.6c-6.5,14.6,2.3,34.2,3.7,31.8
		c6.3-11,12.6-16.8,9.9-27.4c-1.6-6.2-5-16.2-4.8-20.6c0.2-4.4,5.2-24.1,6.8-29.9C96.8,171.7,98.6,166.9,96.4,172.4z M84.9,230.9
		c0.1,1.9,1.1,9.8,1.5,14.1c0,0,0.2,2.8-2.2,4.2c-1.2,0.7-0.8-9.5-0.4-14.9C84.3,228.8,84.8,229,84.9,230.9z"/>
	<path class="st1" d="M82.4,199.9c-2.1,5.2-3.7,13.1-6.3,23.8c-2.6,10.7-4.1,12.8-10.6,27.4c-6.5,14.6,2.3,34.2,3.7,31.8
		c6.3-11,12.6-16.8,9.9-27.4c-1.6-6.2-5-16.2-4.8-20.6c0.2-4.4,5.2-24.1,6.8-29.9C82.8,199.2,84.6,194.4,82.4,199.9z M70.9,258.4
		c0.1,1.9,1.1,9.8,1.5,14.1c0,0,0.2,2.8-2.2,4.2c-1.2,0.7-0.8-9.5-0.4-14.9C70.3,256.3,70.8,256.5,70.9,258.4z"/>
	<path class="st1" d="M127.1,149.6c-3.1,4.7-6.1,12.2-10.6,22.3c-4.5,10.1-6.4,11.8-15.5,24.9c-9.1,13.1-4.1,34.1-2.3,31.9
		c8.2-9.6,15.5-14.1,14.9-25.1c-0.4-6.4-1.9-16.9-0.9-21.1c1-4.2,9.6-22.7,12.2-28.1C127.7,149,130.4,144.6,127.1,149.6z M105,205
		c-0.2,1.9-0.7,9.8-1.2,14.1c0,0-0.4,2.8-3,3.7c-1.3,0.4,0.9-9.5,2.4-14.7C104.8,202.8,105.2,203.1,105,205z"/>
	<path class="st1" d="M143.5,131.3c-2.8,4.3-5.5,11-9.6,20.1c-4.1,9.1-5.8,10.7-14,22.6c-8.2,11.9-3.7,30.8-2.1,28.9
		c7.4-8.7,14-12.8,13.4-22.7c-0.3-5.8-1.7-15.3-0.8-19.1c0.9-3.8,8.7-20.5,11.1-25.4C144,130.8,146.4,126.8,143.5,131.3z
		 M123.5,181.3c-0.2,1.7-0.6,8.9-1.1,12.8c0,0-0.3,2.6-2.7,3.3c-1.2,0.4,0.8-8.6,2.2-13.3C123.3,179.4,123.7,179.7,123.5,181.3z"/>
	<path class="st1" d="M159.1,116.1c-2.4,3.8-4.6,9.8-8,18c-3.4,8.1-4.9,9.6-11.9,20.2c-7,10.6-2.7,27.2-1.2,25.6
		c6.7-7.1,12.2-11,11.4-20.3c-0.5-5.1-1.8-13.4-1.1-16.8c0.7-3.4,7.2-18.3,9.2-22.7C159.6,115.6,161.6,112.1,159.1,116.1z
		 M142.5,160.7c-0.2,1.5-0.4,7.9-0.7,11.3c0,0-0.3,2.3-2.3,3c-1.1,0.4,0.6-7.6,1.7-11.8C142.3,159,142.7,159.2,142.5,160.7z"/>
	<path class="st1" d="M188.9,116.3c-3.5,2.8-7.6,7.7-13.6,14.3c-5.9,6.5-7.8,7.4-17.9,15.1c-10.1,7.7-11.6,24.7-9.7,23.7
		c8.7-4.4,15.2-6.3,17.5-15.4c1.3-5,2.8-13.3,4.6-16.2c1.8-3,12.9-14.8,16.3-18.3C189.5,116,192.6,113.4,188.9,116.3z M158.4,152.9
		c-0.6,1.3-3,7.3-4.4,10.4c0,0-1,2-3.2,2.1c-1.1,0,3.1-7,5.5-10.6C158.8,151.1,159,151.5,158.4,152.9z"/>
</g>
<g>
	<path class="st0" d="M160.3,488c-2.2-13.2-16.8-196.8,70.4-320"/>
	<path class="st1" d="M231.3,206.5c-3.1,5.2-14,22.4-17,25.5c-3,3.1-12.6,7.6-18.2,10.7c-9.6,5.4-9.4,14-13.1,26.1
		c-0.8,2.7,19.5-4.5,25.6-19.2c6.1-14.7,6.6-17.2,12.6-26.5c6-9.3,10.7-15.9,13-21C236.6,196.7,234.4,201.3,231.3,206.5z
		 M198.1,253.8c-3.6,4.1-10.7,11.4-11.1,10c-0.7-2.6,1.5-4.5,1.5-4.5c3.3-2.7,9.8-7.4,11.2-8.6C201.1,249.5,201.7,249.7,198.1,253.8
		z"/>
	<path class="st1" d="M247.6,180.4c-3.6,4.9-15.9,21-19.2,23.9c-3.3,2.9-13.2,6.4-19.1,9c-10,4.5-10.7,13.1-15.4,24.8
		c-1,2.6,19.9-2.7,27.3-16.8c7.4-14.1,8.1-16.6,14.9-25.2c6.8-8.7,12.1-14.8,14.8-19.7C253.9,171.2,251.2,175.6,247.6,180.4z
		 M210.3,224.5c-3.9,3.7-11.7,10.4-11.9,9c-0.4-2.7,1.9-4.3,1.9-4.3c3.6-2.4,10.4-6.5,11.9-7.6C213.7,220.5,214.2,220.8,210.3,224.5
		z"/>
	<path class="st1" d="M255.8,157.7c-3.2,4.4-14.4,19-17.4,21.6c-3,2.6-12,5.8-17.3,8.2c-9.1,4.1-9.6,11.8-13.9,22.4
		c-0.9,2.3,18-2.4,24.7-15.2c6.7-12.8,7.3-15,13.5-22.8c6.2-7.9,10.9-13.4,13.4-17.8C261.4,149.3,259,153.3,255.8,157.7z
		 M221.9,197.6c-3.6,3.4-10.6,9.4-10.8,8.1c-0.4-2.4,1.7-3.9,1.7-3.9c3.2-2.2,9.4-5.9,10.8-6.9C225.1,194,225.5,194.2,221.9,197.6z"
		/>
	<path class="st1" d="M267,137c-2.9,3.8-13.1,16.5-15.8,18.7c-2.7,2.2-10.7,4.9-15.4,6.8c-8.6,3.6-9.6,10.3-12.7,19.5
		c-0.7,2.1,15.9-1.8,22.1-12.9c6.2-11.1,6.8-13.1,12.4-19.9c5.6-6.8,9.9-11.6,12.2-15.5C272.1,129.7,269.9,133.2,267,137z
		 M236.3,171.5c-3.2,2.9-9.5,8.1-9.7,6.9c-0.3-2.1,1.6-3.4,1.6-3.4c2.9-1.8,8.4-5,9.7-5.8C239.1,168.4,239.5,168.6,236.3,171.5z"/>
	<path class="st1" d="M178.9,181.9c-1.1,5.5-1.1,13.6-1.5,24.6c-0.4,11-1.5,13.3-5,28.9c-3.5,15.6,9,33.1,9.8,30.5
		c4-12,9.1-18.9,4.4-28.8c-2.8-5.8-8.1-14.9-8.7-19.3c-0.6-4.3,0.4-24.6,0.8-30.6C179.2,181.1,180.1,176.1,178.9,181.9z
		 M179.1,241.5c0.5,1.8,3,9.4,4.2,13.5c0,0,0.7,2.8-1.4,4.5c-1.1,0.9-2.7-9.2-3.3-14.6C178.1,239.5,178.6,239.7,179.1,241.5z"/>
	<path class="st1" d="M170.5,211.6c-1.1,5.5-1.1,13.6-1.5,24.6c-0.4,11-1.5,13.3-5,28.9c-3.5,15.5,9,33.1,9.9,30.5
		c4-12,9.1-18.9,4.4-28.8c-2.8-5.8-8.1-14.9-8.7-19.2c-0.7-4.3,0.4-24.6,0.8-30.6S171.7,205.7,170.5,211.6z M170.7,271.2
		c0.5,1.8,3,9.4,4.2,13.5c0,0,0.7,2.8-1.4,4.5c-1.1,0.9-2.7-9.2-3.3-14.6C169.7,269.2,170.3,269.4,170.7,271.2z"/>
	<path class="st1" d="M204.6,153.5c-2.1,5.2-3.6,13.1-6.1,23.9c-2.5,10.8-3.9,12.8-10.3,27.5c-6.3,14.6,2.6,34.2,4,31.8
		c6.2-11,12.5-16.9,9.7-27.5c-1.6-6.2-5.1-16.2-5-20.5c0.2-4.4,5-24.1,6.5-29.9C205.1,152.9,206.8,148,204.6,153.5z M193.7,212.1
		c0.1,1.9,1.2,9.8,1.6,14.1c0,0,0.2,2.8-2.2,4.2c-1.2,0.7-0.9-9.5-0.5-14.9C193.1,210,193.6,210.3,193.7,212.1z"/>
	<path class="st1" d="M217.1,132.3c-1.9,4.7-3.2,11.9-5.5,21.6c-2.2,9.7-3.6,11.6-9.3,24.8c-5.7,13.2,2.4,31,3.6,28.8
		c5.6-10,11.3-15.3,8.7-24.9c-1.5-5.6-4.6-14.6-4.5-18.6c0.1-3.9,4.5-21.8,5.9-27.1C217.5,131.7,219.1,127.4,217.1,132.3z
		 M207.2,185.4c0.1,1.7,1.1,8.8,1.4,12.7c0,0,0.2,2.6-2,3.8c-1.1,0.6-0.8-8.6-0.4-13.5C206.6,183.5,207.1,183.7,207.2,185.4z"/>
	<path class="st1" d="M229.5,114.4c-1.6,4.2-2.6,10.6-4.4,19.2c-1.8,8.6-2.9,10.3-7.7,22.1c-4.8,11.8,2.6,27.2,3.8,25.3
		c5.2-8.2,9.8-13.2,7.2-22.2c-1.5-4.9-4.4-12.8-4.4-16.3c0-3.5,3.5-19.3,4.6-24C229.8,113.9,231.1,110,229.5,114.4z M221.9,161.4
		c0.1,1.5,1.2,7.8,1.5,11.2c0,0,0.2,2.3-1.7,3.4c-1,0.6-0.9-7.6-0.7-11.9C221.4,159.8,221.8,159.9,221.9,161.4z"/>
	<path class="st1" d="M258.8,108.8c-2.9,3.4-6,9.1-10.5,16.6c-4.5,7.6-6.2,8.8-14.6,18.3c-8.4,9.5-6.6,26.5-4.8,25.1
		c7.7-6,13.7-9.2,14.2-18.5c0.3-5.1,0.1-13.6,1.3-16.8c1.2-3.3,9.7-17.1,12.4-21.1C259.3,108.4,261.8,105.2,258.8,108.8z
		 M235.9,150.6c-0.4,1.4-1.5,7.7-2.3,11.1c0,0-0.6,2.2-2.7,2.6c-1.1,0.2,1.6-7.5,3.3-11.5C236,148.8,236.3,149.1,235.9,150.6z"/>
</g>
<g>
	<path class="st0" d="M297.6,508.5c-0.8-13.3,3.5-197.5,102.9-311"/>
	<path class="st1" d="M416.1,211.5c-4,4.5-18,19.3-21.6,21.8c-3.6,2.5-13.8,5-19.9,7c-10.5,3.5-11.9,11.9-17.8,23.1
		c-1.3,2.5,20-0.6,28.8-13.9c8.8-13.3,9.8-15.6,17.4-23.6c7.7-7.9,13.5-13.5,16.8-18.1C423.2,202.9,420.1,207,416.1,211.5z
		 M374.4,251.5c-4.3,3.3-12.7,9.1-12.8,7.7c-0.2-2.7,2.3-4.1,2.3-4.1c3.8-2,11-5.4,12.7-6.3C378.2,247.9,378.7,248.2,374.4,251.5z"
		/>
	<path class="st1" d="M426.5,189.7c-3.7,4.1-16.3,17.4-19.5,19.7c-3.2,2.3-12.5,4.5-18,6.3c-9.5,3.1-10.8,10.8-16.1,20.9
		c-1.2,2.2,18.1-0.6,26.1-12.6c8-12,8.8-14.2,15.8-21.3c7-7.2,12.2-12.2,15.2-16.4C433,181.9,430.2,185.7,426.5,189.7z M388.8,225.9
		c-3.9,3-11.5,8.3-11.6,7c-0.2-2.4,2.1-3.7,2.1-3.7c3.4-1.8,10-4.9,11.5-5.7C392.3,222.6,392.7,222.9,388.8,225.9z"/>
	<path class="st1" d="M439.8,170.2c-3.3,3.5-14.7,15-17.6,17c-2.9,1.9-11.1,3.7-16,5.2c-9,2.7-10.6,9.2-14.7,18.1
		c-0.9,2,16-0.1,23.3-10.6c7.3-10.4,8.1-12.3,14.4-18.5c6.3-6.2,11.1-10.5,13.7-14.1C445.7,163.5,443.1,166.7,439.8,170.2z
		 M405.7,201.4c-3.5,2.6-10.3,7-10.4,5.9c-0.1-2.2,1.9-3.2,1.9-3.2c3.1-1.5,8.9-4.1,10.2-4.8C408.9,198.6,409.2,198.8,405.7,201.4z"
		/>
	<path class="st1" d="M347.6,205.8c-1.6,5.4-2.5,13.4-4,24.3c-1.6,10.9-2.9,13.1-8,28.2c-5.1,15.1,5.5,33.9,6.7,31.3
		c5.2-11.5,11-17.9,7.3-28.2c-2.1-6.1-6.5-15.7-6.7-20c-0.2-4.4,2.9-24.4,4-30.4C348,205.1,349.3,200.2,347.6,205.8z M341.7,265.2
		c0.3,1.9,2,9.6,2.8,13.9c0,0,0.4,2.8-1.8,4.3c-1.2,0.8-1.7-9.4-1.7-14.8C340.8,263.1,341.4,263.3,341.7,265.2z"/>
	<path class="st1" d="M376.1,180.3c-2.6,5-4.9,12.7-8.5,23.2c-3.6,10.5-5.2,12.4-13.1,26.3c-7.8,13.9-0.9,34.3,0.7,32
		c7.3-10.3,14.1-15.5,12.4-26.4c-1-6.4-3.4-16.6-2.8-20.9c0.6-4.3,7.4-23.5,9.6-29.1C376.6,179.7,378.9,175,376.1,180.3z
		 M359.2,237.5c-0.1,1.9,0.2,9.9,0.1,14.1c0,0-0.1,2.8-2.6,3.9c-1.3,0.6,0-9.6,1-14.9C358.8,235.3,359.3,235.6,359.2,237.5z"/>
	<path class="st1" d="M390.7,160.5c-2.4,4.5-4.4,11.5-7.7,21c-3.2,9.5-4.7,11.2-11.8,23.8c-7.1,12.6-0.8,31,0.7,29
		c6.6-9.3,12.8-14,11.3-23.9c-0.9-5.8-3.1-15-2.6-18.9c0.5-3.9,6.7-21.2,8.7-26.3C391.1,159.9,393.2,155.7,390.7,160.5z
		 M375.4,212.2c-0.1,1.7,0.2,8.9,0.1,12.8c0,0-0.1,2.6-2.4,3.6c-1.2,0.5,0-8.6,0.9-13.5C375,210.3,375.5,210.5,375.4,212.2z"/>
	<path class="st1" d="M404.8,143.9c-2,4-3.7,10.2-6.3,18.7c-2.7,8.4-4,10-9.9,21.2c-6,11.2-0.2,27.3,1.2,25.6
		c6-7.7,11.1-12.1,9.4-21.3c-0.9-5.1-3.1-13.2-2.7-16.7c0.4-3.5,5.5-18.9,7.1-23.4C405.2,143.4,406.9,139.7,404.8,143.9z
		 M392.5,189.9c0,1.5,0.4,7.9,0.4,11.3c0,0,0,2.3-2,3.2c-1,0.5-0.1-7.6,0.5-11.9C392.1,188.2,392.5,188.4,392.5,189.9z"/>
	<path class="st1" d="M434.5,141.4c-3.2,3.1-6.9,8.4-12.2,15.5c-5.3,7.1-7,8.1-16.4,16.7c-9.4,8.6-9.3,25.7-7.4,24.5
		c8.2-5.2,14.5-7.7,16-16.9c0.8-5.1,1.5-13.5,3-16.6c1.5-3.1,11.4-16,14.5-19.7C435.1,141,437.9,138.1,434.5,141.4z M407.5,180.6
		c-0.5,1.4-2.3,7.5-3.4,10.8c0,0-0.8,2.1-2.9,2.3c-1.1,0.1,2.4-7.2,4.5-11.1C407.8,178.9,408.1,179.2,407.5,180.6z"/>
</g>
<g>
	<path class="st0" d="M449.2,533.6c-3.9-12.8-42.9-192.8,27.2-326.5"/>
	<path class="st1" d="M499.9,193.5c-2.6,4.8-11.8,20.8-14.4,23.7c-2.6,3-11.1,7.3-16,10.4c-8.5,5.3-8,13-10.8,24.1
		c-0.6,2.5,17.5-4.8,22.4-18.4c4.9-13.6,5.3-15.8,10.3-24.4c5.1-8.6,9-14.7,10.9-19.5C504.3,184.4,502.5,188.7,499.9,193.5z
		 M471.6,237.5c-3.1,3.8-9.2,10.7-9.6,9.5c-0.7-2.3,1.2-4.1,1.2-4.1c2.9-2.6,8.6-7.1,9.8-8.2C474.2,233.5,474.7,233.7,471.6,237.5z"
		/>
	<path class="st1" d="M508.2,171.4c-2.4,4.2-10.8,18.1-13.2,20.6c-2.4,2.6-9.9,6.2-14.4,8.8c-8.1,4.7-8.1,11.5-10,21
		c-0.4,2.2,15.5-3.9,20.2-15.7c4.6-11.9,5-13.9,9.6-21.3c4.7-7.5,8.3-12.8,10-16.9C512.3,163.5,510.6,167.3,508.2,171.4z
		 M482.4,209.7c-2.8,3.3-8.4,9.3-8.7,8.2c-0.6-2.1,1.1-3.6,1.1-3.6c2.6-2.2,7.7-6.1,8.8-7.1C484.7,206.2,485.2,206.4,482.4,209.7z"
		/>
	<path class="st1" d="M448.6,196.1c-1.4,5.4-1.8,13.5-2.8,24.5c-1,11-2.2,13.2-6.5,28.6c-4.3,15.3,7.2,33.6,8.2,31
		c4.6-11.7,10.1-18.4,5.9-28.6c-2.4-6-7.2-15.4-7.7-19.7c-0.4-4.3,1.7-24.6,2.5-30.5C449,195.4,450.1,190.4,448.6,196.1z
		 M445.6,255.7c0.4,1.8,2.5,9.5,3.5,13.7c0,0,0.6,2.8-1.6,4.4c-1.1,0.9-2.2-9.3-2.5-14.7C444.7,253.7,445.2,253.8,445.6,255.7z"/>
	<path class="st1" d="M458.1,173.5c-1.2,4.9-1.6,12.2-2.5,22.2c-0.9,10-2,12-5.9,25.9c-3.9,13.9,6.5,30.4,7.4,28
		c4.2-10.6,9.1-16.6,5.4-25.9c-2.2-5.4-6.5-13.9-6.9-17.8c-0.4-3.9,1.5-22.2,2.2-27.6C458.5,172.8,459.5,168.3,458.1,173.5z
		 M455.4,227.3c0.3,1.7,2.3,8.6,3.1,12.4c0,0,0.5,2.5-1.5,4c-1,0.8-2-8.4-2.2-13.3C454.6,225.5,455.1,225.7,455.4,227.3z"/>
	<path class="st1" d="M468,154.1c-1,4.4-1.2,10.8-1.8,19.6c-0.6,8.8-1.5,10.6-4.7,23c-3.2,12.3,6.2,26.6,7.1,24.6
		c4.1-8.9,8-14.4,4.2-22.9c-2.1-4.7-6.1-12.1-6.5-15.6c-0.4-3.5,0.9-19.6,1.4-24.4C468.3,153.5,469.1,149.4,468,154.1z M466.8,201.7
		c0.3,1.5,2.2,7.6,3,10.9c0,0,0.5,2.2-1.2,3.6c-0.9,0.7-1.9-7.4-2.3-11.7C466,200.1,466.4,200.2,466.8,201.7z"/>
	<path class="st1" d="M496.3,144.6c-2.4,3.8-4.7,9.8-8.2,17.9c-3.5,8.1-5,9.5-12.1,20.1c-7.1,10.6-3,27.1-1.4,25.5
		c6.8-7,12.3-10.9,11.6-20.2c-0.4-5.1-1.7-13.5-0.9-16.8c0.8-3.4,7.4-18.2,9.5-22.6C496.7,144.1,498.8,140.6,496.3,144.6z
		 M479.3,189.1c-0.2,1.5-0.5,7.9-0.8,11.3c0,0-0.3,2.3-2.3,3c-1.1,0.4,0.6-7.6,1.8-11.8C479.1,187.3,479.4,187.6,479.3,189.1z"/>
</g>
<g>
	<path class="st0" d="M558.7,515.5c-4.5-12.5-52.2-190.5,11.3-327.4"/>
	<path class="st1" d="M588.9,197.1c-2.6,5.4-11.9,23.5-14.6,26.9c-2.7,3.4-11.9,8.7-17.2,12.3c-9.1,6.3-8.1,14.8-10.6,27.2
		c-0.6,2.7,19-6.3,23.8-21.5c4.7-15.2,5-17.8,10.1-27.5c5.1-9.8,9.2-16.8,11-22.1C593.3,186.9,591.5,191.7,588.9,197.1z
		 M560.1,247.3c-3.2,4.4-9.6,12.3-10.1,11c-0.9-2.6,1.1-4.6,1.1-4.6c3.1-3,9.1-8.3,10.4-9.6C562.8,242.7,563.3,242.9,560.1,247.3z"
		/>
	<path class="st1" d="M592.8,173.3c-2.4,4.9-10.7,21.3-13.2,24.4c-2.5,3.1-10.7,7.8-15.5,11.2c-8.2,5.7-7.3,13.4-9.6,24.6
		c-0.5,2.5,17.2-5.7,21.5-19.4c4.3-13.8,4.5-16.1,9.1-24.9c4.7-8.8,8.3-15.2,9.9-20C596.8,164.1,595.2,168.4,592.8,173.3z
		 M566.8,218.7c-2.9,4-8.7,11.2-9.1,9.9c-0.8-2.3,1-4.2,1-4.2c2.8-2.7,8.2-7.5,9.4-8.7C569.2,214.6,569.7,214.7,566.8,218.7z"/>
	<path class="st1" d="M600.1,150.9c-2.2,4.3-9.9,18.6-12.2,21.2c-2.2,2.7-9.6,6.7-13.9,9.5c-7.9,5.1-7.6,11.9-9,21.5
		c-0.3,2.2,15.3-4.6,19.4-16.7c4.1-12.1,4.3-14.1,8.6-21.8c4.3-7.7,7.7-13.2,9.2-17.4C603.8,142.8,602.2,146.6,600.1,150.9z
		 M576.1,190.4c-2.6,3.4-7.9,9.7-8.3,8.6c-0.7-2.1,0.9-3.6,0.9-3.6c2.5-2.3,7.4-6.4,8.5-7.5C578.3,186.8,578.8,186.9,576.1,190.4z"
		/>
	<path class="st1" d="M521.6,211c-0.1,5.6,1.4,13.5,3,24.5c1.6,10.9,1,13.4,0.3,29.3c-0.6,15.9,14.8,31,15.2,28.2
		c1.8-12.5,5.5-20.2-0.9-29.2c-3.8-5.2-10.6-13.2-12-17.4c-1.4-4.1-4.1-24.3-4.7-30.3C521.8,210.2,521.7,205.1,521.6,211z
		 M532.6,269.6c0.8,1.7,4.7,8.7,6.6,12.5c0,0,1.2,2.6-0.5,4.7c-0.9,1.1-4.3-8.5-5.8-13.7C531.2,267.9,531.8,267.9,532.6,269.6z"/>
	<path class="st1" d="M541.7,178.5c-1.1,5.5-1.1,13.6-1.6,24.6c-0.5,11-1.6,13.3-5.1,28.9c-3.6,15.5,8.8,33.2,9.7,30.5
		c4.1-12,9.2-18.9,4.5-28.8c-2.7-5.8-8-15-8.6-19.3c-0.6-4.3,0.5-24.6,1-30.6C542.1,177.7,542.9,172.7,541.7,178.5z M541.6,238.1
		c0.5,1.8,3,9.4,4.1,13.5c0,0,0.7,2.8-1.4,4.5c-1.1,0.9-2.6-9.2-3.2-14.6C540.6,236.1,541.2,236.3,541.6,238.1z"/>
	<path class="st1" d="M550.2,155.4c-1,5-1,12.3-1.5,22.3c-0.4,10-1.4,12.1-4.7,26.1c-3.2,14.1,8,30,8.8,27.6
		c3.7-10.8,8.3-17.1,4.1-26.1c-2.5-5.3-7.2-13.6-7.8-17.5c-0.6-3.9,0.5-22.3,0.9-27.7C550.4,154.7,551.2,150.1,550.2,155.4z
		 M550.1,209.3c0.4,1.6,2.7,8.5,3.7,12.2c0,0,0.6,2.5-1.3,4.1c-1,0.8-2.4-8.3-2.9-13.2C549.2,207.6,549.6,207.7,550.1,209.3z"/>
	<path class="st1" d="M559.1,135.5c-0.8,4.4-0.6,10.9-0.8,19.7c-0.2,8.8-1,10.7-3.6,23.2c-2.6,12.5,7.5,26.3,8.3,24.2
		c3.6-9,7.3-14.8,3.1-23.1c-2.3-4.6-6.7-11.8-7.2-15.2c-0.6-3.4-0.1-19.7,0.2-24.5C559.3,134.9,559.9,130.8,559.1,135.5z
		 M560.2,183.1c0.4,1.4,2.6,7.4,3.6,10.7c0,0,0.6,2.2-1,3.6c-0.9,0.7-2.3-7.3-2.8-11.6C559.3,181.6,559.8,181.7,560.2,183.1z"/>
	<path class="st1" d="M586.9,124.7c-2.2,3.9-4.2,10-7.3,18.3c-3.1,8.3-4.5,9.7-11.1,20.6c-6.6,10.9-1.7,27.3-0.2,25.6
		c6.4-7.3,11.8-11.5,10.6-20.8c-0.7-5.1-2.3-13.4-1.8-16.8c0.6-3.4,6.5-18.6,8.3-23C587.3,124.2,589.2,120.6,586.9,124.7z
		 M572,169.9c-0.1,1.5-0.1,7.9-0.2,11.3c0,0-0.2,2.3-2.2,3.1c-1.1,0.4,0.3-7.6,1.2-11.9C571.7,168.2,572.1,168.4,572,169.9z"/>
</g>
<g>
	<path class="st2" d="M860.8,491.3c2.2-13.2,16.7-196.8-69.8-320"/>
	<path class="st1" d="M787.4,205.4c2.3,5.1,6.9,11.7,12.9,21c6,9.3,6.4,11.8,12.5,26.5c6,14.7,26.2,21.9,25.4,19.2
		c-3.6-12.1-3.4-20.7-12.9-26.1c-5.6-3.2-15.1-7.6-18.1-10.7c-3-3.1-13.8-20.3-16.8-25.5C787.2,204.6,785,200,787.4,205.4z
		 M821.6,254c1.4,1.2,7.8,5.9,11.1,8.6c0,0,2.1,1.9,1.5,4.5c-0.4,1.4-7.4-5.9-11-10C819.7,253,820.2,252.8,821.6,254z"/>
	<path class="st1" d="M770.8,179.6c2.7,4.9,7.9,11,14.7,19.7c6.8,8.7,7.5,11.1,14.8,25.2c7.3,14.1,28.1,19.4,27,16.8
		c-4.7-11.7-5.3-20.3-15.2-24.8c-5.8-2.6-15.7-6.2-18.9-9c-3.3-2.9-15.5-19-19.1-23.9C770.6,178.8,768,174.4,770.8,179.6z
		 M809.3,224.9c1.5,1.1,8.3,5.2,11.8,7.6c0,0,2.3,1.6,1.9,4.3c-0.2,1.4-7.9-5.2-11.8-9C807.3,224,807.8,223.8,809.3,224.9z"/>
	<path class="st1" d="M763.1,157.3c2.5,4.4,7.2,10,13.3,17.8c6.1,7.9,6.7,10.1,13.4,22.8c6.6,12.8,25.4,17.6,24.5,15.2
		c-4.2-10.6-4.8-18.4-13.8-22.4c-5.3-2.4-14.2-5.6-17.1-8.2c-2.9-2.6-14-17.2-17.2-21.6C762.9,156.6,760.5,152.6,763.1,157.3z
		 M797.9,198.2c1.4,1,7.5,4.7,10.7,6.9c0,0,2.1,1.5,1.7,3.9c-0.2,1.3-7.2-4.7-10.7-8.1C796.1,197.5,796.5,197.3,797.9,198.2z"/>
	<path class="st1" d="M752.3,137c2.3,3.9,6.5,8.7,12.1,15.5c5.6,6.8,6.2,8.7,12.3,19.9c6.1,11.1,22.6,15,21.9,12.9
		c-3.1-9.2-4.1-15.9-12.6-19.5c-4.7-2-12.6-4.6-15.3-6.8c-2.7-2.2-12.8-14.9-15.7-18.7C752,136.4,749.9,133,752.3,137z M783.8,172.4
		c1.2,0.8,6.7,4,9.6,5.8c0,0,1.9,1.3,1.6,3.4c-0.2,1.1-6.4-4-9.6-6.9C782.2,171.8,782.6,171.6,783.8,172.4z"/>
	<path class="st1" d="M842.4,190.4c0.4,6,1.5,26.3,0.8,30.6c-0.6,4.3-5.9,13.4-8.6,19.3c-4.7,9.9,0.4,16.9,4.3,28.8
		c0.9,2.7,13.3-14.9,9.8-30.5c-3.5-15.6-4.5-17.9-5-28.9c-0.4-11-0.4-19.1-1.5-24.6C841.1,179.3,842,184.4,842.4,190.4z
		 M842.5,248.2c-0.6,5.4-2.2,15.5-3.2,14.6c-2.1-1.8-1.4-4.5-1.4-4.5c1.2-4.1,3.7-11.7,4.2-13.5
		C842.5,242.9,843.1,242.8,842.5,248.2z"/>
	<path class="st1" d="M817.9,161.9c1.5,5.8,6.3,25.6,6.5,29.9c0.2,4.4-3.3,14.3-4.9,20.5c-2.8,10.6,3.5,16.5,9.6,27.5
		c1.4,2.4,10.3-17.2,4-31.8c-6.3-14.6-7.8-16.7-10.2-27.5c-2.5-10.8-3.9-18.7-6-23.9C814.6,151.3,816.3,156.1,817.9,161.9z
		 M828.6,218.7c0.4,5.4,0.7,15.6-0.5,14.9c-2.3-1.3-2.2-4.2-2.2-4.2c0.4-4.3,1.5-12.2,1.6-14.1C827.7,213.5,828.2,213.3,828.6,218.7
		z"/>
	<path class="st1" d="M805.4,140.3c1.4,5.3,5.7,23.1,5.8,27.1c0.1,3.9-3,12.9-4.5,18.6c-2.5,9.6,3.1,14.9,8.7,24.9
		c1.2,2.2,9.3-15.5,3.6-28.8c-5.7-13.2-7-15.1-9.2-24.9c-2.2-9.7-3.6-16.9-5.4-21.6C802.4,130.6,804,135,805.4,140.3z M815.2,191.6
		c0.4,4.9,0.7,14.1-0.4,13.5c-2.1-1.2-2-3.8-2-3.8c0.3-3.9,1.3-11,1.4-12.7C814.3,186.9,814.8,186.7,815.2,191.6z"/>
	<path class="st1" d="M792.9,121.8c1.1,4.7,4.5,20.5,4.6,24c0,3.5-2.9,11.4-4.3,16.3c-2.6,9,2,13.9,7.1,22.2
		c1.2,1.9,8.5-13.5,3.8-25.3c-4.7-11.8-5.9-13.5-7.6-22.1c-1.8-8.6-2.8-15-4.3-19.2C790.5,113.2,791.8,117.1,792.9,121.8z
		 M800.4,167.4c0.2,4.3,0.3,12.5-0.7,11.9c-1.8-1.1-1.7-3.4-1.7-3.4c0.4-3.4,1.4-9.7,1.5-11.2C799.8,163.2,800.2,163,800.4,167.4z"
		/>
	<path class="st1" d="M765.2,115.7c2.6,4,11.1,17.8,12.3,21.1c1.2,3.3,1,11.7,1.3,16.8c0.5,9.3,6.5,12.5,14,18.5
		c1.7,1.4,3.6-15.6-4.8-25.1c-8.4-9.5-10-10.7-14.5-18.3c-4.5-7.6-7.6-13.2-10.4-16.6C760.1,108.4,762.6,111.7,765.2,115.7z
		 M787.3,156.1c1.7,4,4.4,11.7,3.3,11.5c-2.1-0.4-2.7-2.6-2.7-2.6c-0.8-3.3-1.9-9.6-2.3-11.1C785.4,152.4,785.7,152.1,787.3,156.1z"
		/>
</g>
<g>
	<path class="st0" d="M788,503.2c2.2-13.2,16.8-196.8-70.4-320"/>
	<path class="st1" d="M697.3,191.5c2.7,4.9,8,11,14.8,19.7c6.8,8.7,7.5,11.1,14.9,25.2c7.4,14.1,28.3,19.4,27.3,16.8
		c-4.7-11.7-5.3-20.3-15.4-24.8c-5.9-2.6-15.8-6.2-19.1-9c-3.3-2.9-15.7-19-19.2-23.9C697,190.7,694.4,186.3,697.3,191.5z
		 M736.1,236.7c1.5,1.1,8.4,5.2,11.9,7.6c0,0,2.3,1.6,1.9,4.3c-0.2,1.4-8-5.2-11.9-9C734,235.9,734.5,235.7,736.1,236.7z"/>
	<path class="st1" d="M689.4,169.2c2.5,4.4,7.2,10,13.4,17.8c6.2,7.9,6.8,10.1,13.5,22.8c6.7,12.8,25.6,17.6,24.7,15.2
		c-4.3-10.6-4.8-18.4-13.9-22.4c-5.3-2.4-14.3-5.6-17.3-8.2c-3-2.6-14.2-17.2-17.4-21.6C689.2,168.5,686.8,164.5,689.4,169.2z
		 M724.5,210.1c1.4,1,7.6,4.7,10.8,6.9c0,0,2.1,1.5,1.7,3.9c-0.2,1.3-7.2-4.7-10.8-8.1C722.7,209.4,723.2,209.1,724.5,210.1z"/>
	<path class="st1" d="M678.5,148.9c2.3,3.9,6.6,8.7,12.2,15.5c5.6,6.8,6.2,8.7,12.4,19.9c6.2,11.1,22.8,15,22.1,12.9
		c-3.1-9.2-4.1-15.9-12.7-19.5c-4.7-2-12.7-4.6-15.4-6.8c-2.7-2.2-12.9-14.9-15.8-18.7C678.3,148.3,676.1,144.8,678.5,148.9z
		 M710.4,184.3c1.2,0.8,6.8,4,9.7,5.8c0,0,1.9,1.3,1.6,3.4c-0.2,1.1-6.5-4-9.7-6.9C708.7,183.7,709.1,183.5,710.4,184.3z"/>
	<path class="st1" d="M769.4,202.3c0.4,6,1.5,26.3,0.8,30.6c-0.7,4.3-5.9,13.4-8.7,19.3c-4.7,9.9,0.4,16.9,4.4,28.8
		c0.9,2.7,13.4-14.9,9.8-30.5c-3.5-15.6-4.6-17.9-5-28.9c-0.4-11-0.4-19.1-1.5-24.6C768.2,191.2,769,196.3,769.4,202.3z
		 M769.6,260.1c-0.6,5.4-2.2,15.5-3.3,14.6c-2.1-1.8-1.4-4.5-1.4-4.5c1.2-4.1,3.7-11.7,4.2-13.5
		C769.6,254.8,770.1,254.7,769.6,260.1z"/>
	<path class="st1" d="M744.7,173.8c1.6,5.8,6.4,25.6,6.5,29.9c0.2,4.4-3.3,14.3-5,20.5c-2.8,10.6,3.5,16.5,9.7,27.5
		c1.4,2.4,10.4-17.2,4-31.8c-6.3-14.6-7.8-16.7-10.3-27.5c-2.5-10.8-4-18.7-6.1-23.9C741.4,163.2,743.1,168,744.7,173.8z
		 M755.6,230.6c0.4,5.4,0.7,15.6-0.5,14.9c-2.4-1.3-2.2-4.2-2.2-4.2c0.4-4.3,1.5-12.2,1.6-14.1C754.6,225.4,755.1,225.2,755.6,230.6
		z"/>
	<path class="st1" d="M732.1,152.1c1.4,5.3,5.8,23.1,5.9,27.1c0.1,3.9-3,12.9-4.5,18.6c-2.5,9.6,3.2,14.9,8.7,24.9
		c1.2,2.2,9.4-15.5,3.6-28.8c-5.7-13.2-7.1-15.1-9.3-24.9c-2.2-9.7-3.6-16.9-5.5-21.6C729.1,142.5,730.7,146.9,732.1,152.1z
		 M742,203.5c0.4,4.9,0.7,14.1-0.4,13.5c-2.1-1.2-2-3.8-2-3.8c0.3-3.9,1.3-11,1.4-12.7C741.1,198.8,741.6,198.6,742,203.5z"/>
	<path class="st1" d="M719.5,133.7c1.1,4.7,4.6,20.5,4.6,24c0,3.5-2.9,11.4-4.4,16.3c-2.6,9,2,13.9,7.2,22.2
		c1.2,1.9,8.6-13.5,3.8-25.3c-4.8-11.8-5.9-13.5-7.7-22.1c-1.8-8.6-2.8-15-4.4-19.2C717.1,125.1,718.4,129,719.5,133.7z
		 M727.1,179.2c0.2,4.3,0.3,12.5-0.7,11.9c-1.9-1.1-1.7-3.4-1.7-3.4c0.4-3.4,1.4-9.7,1.5-11.2C726.4,175.1,726.9,174.9,727.1,179.2z
		"/>
	<path class="st1" d="M691.6,127.6c2.6,4,11.2,17.8,12.4,21.1c1.2,3.3,1,11.7,1.3,16.8c0.5,9.3,6.5,12.5,14.2,18.5
		c1.8,1.4,3.6-15.6-4.8-25.1c-8.4-9.5-10.1-10.7-14.6-18.3c-4.5-7.6-7.6-13.2-10.5-16.6C686.4,120.3,689,123.5,691.6,127.6z
		 M713.9,168c1.7,4,4.4,11.7,3.3,11.5c-2.1-0.4-2.7-2.6-2.7-2.6c-0.8-3.3-1.9-9.6-2.3-11.1C711.9,164.3,712.2,164,713.9,168z"/>
</g>
<g>
	<path class="st0" d="M727,502.1c2.2-13.2,16.8-196.8-70.4-320"/>
	<path class="st1" d="M636.3,190.5c2.7,4.9,8,11,14.8,19.7c6.8,8.7,7.5,11.1,14.9,25.2c7.4,14.1,28.3,19.4,27.3,16.8
		c-4.7-11.7-5.3-20.3-15.4-24.8c-5.9-2.6-15.8-6.2-19.1-9c-3.3-2.9-15.7-19-19.2-23.9C636.1,189.7,633.4,185.3,636.3,190.5z
		 M675.1,235.7c1.5,1.1,8.4,5.2,11.9,7.6c0,0,2.3,1.6,1.9,4.3c-0.2,1.4-8-5.2-11.9-9C673,234.9,673.5,234.7,675.1,235.7z"/>
	<path class="st1" d="M628.5,168.1c2.5,4.4,7.2,10,13.4,17.8c6.2,7.9,6.8,10.1,13.5,22.8c6.7,12.8,25.6,17.6,24.7,15.2
		c-4.3-10.6-4.8-18.4-13.9-22.4c-5.3-2.4-14.3-5.6-17.3-8.2c-3-2.6-14.2-17.2-17.4-21.6C628.3,167.4,625.8,163.5,628.5,168.1z
		 M663.6,209.1c1.4,1,7.6,4.7,10.8,6.9c0,0,2.1,1.5,1.7,3.9c-0.2,1.3-7.2-4.7-10.8-8.1C661.7,208.3,662.2,208.1,663.6,209.1z"/>
	<path class="st1" d="M617.6,147.9c2.3,3.9,6.6,8.7,12.2,15.5c5.6,6.8,6.2,8.7,12.4,19.9c6.2,11.1,22.8,15,22.1,12.9
		c-3.1-9.2-4.1-15.9-12.7-19.5c-4.7-2-12.7-4.6-15.4-6.8c-2.7-2.2-12.9-14.9-15.8-18.7C617.3,147.3,615.1,143.8,617.6,147.9z
		 M649.4,183.3c1.2,0.8,6.8,4,9.7,5.8c0,0,1.9,1.3,1.6,3.4c-0.2,1.1-6.5-4-9.7-6.9C647.7,182.7,648.1,182.5,649.4,183.3z"/>
	<path class="st1" d="M708.5,201.3c0.4,6,1.5,26.3,0.8,30.6c-0.7,4.3-5.9,13.4-8.7,19.3c-4.7,9.9,0.4,16.9,4.4,28.8
		c0.9,2.7,13.4-14.9,9.8-30.5c-3.5-15.6-4.6-17.9-5-28.9c-0.4-11-0.4-19.1-1.5-24.6C707.2,190.2,708,195.3,708.5,201.3z
		 M708.6,259.1c-0.6,5.4-2.2,15.5-3.3,14.6c-2.1-1.8-1.4-4.5-1.4-4.5c1.2-4.1,3.7-11.7,4.2-13.5
		C708.6,253.8,709.2,253.7,708.6,259.1z"/>
	<path class="st1" d="M683.7,172.8c1.6,5.8,6.4,25.6,6.5,29.9c0.2,4.4-3.3,14.3-5,20.5c-2.8,10.6,3.5,16.5,9.7,27.5
		c1.4,2.4,10.4-17.2,4-31.8c-6.3-14.6-7.8-16.7-10.3-27.5c-2.5-10.8-4-18.7-6.1-23.9C680.4,162.1,682.2,167,683.7,172.8z
		 M694.6,229.6c0.4,5.4,0.7,15.6-0.5,14.9c-2.4-1.3-2.2-4.2-2.2-4.2c0.4-4.3,1.5-12.2,1.6-14.1C693.6,224.4,694.1,224.1,694.6,229.6
		z"/>
	<path class="st1" d="M671.2,151.1c1.4,5.3,5.8,23.1,5.9,27.1c0.1,3.9-3,12.9-4.5,18.6c-2.5,9.6,3.2,14.9,8.7,24.9
		c1.2,2.2,9.4-15.5,3.6-28.8c-5.7-13.2-7.1-15.1-9.3-24.8c-2.2-9.7-3.6-16.9-5.5-21.6C668.2,141.5,669.8,145.9,671.2,151.1z
		 M681,202.5c0.4,4.9,0.7,14.1-0.4,13.5c-2.1-1.2-2-3.8-2-3.8c0.3-3.9,1.3-11,1.4-12.7C680.1,197.8,680.6,197.6,681,202.5z"/>
	<path class="st1" d="M658.5,132.7c1.1,4.7,4.6,20.5,4.6,24c0,3.5-2.9,11.4-4.4,16.3c-2.6,9,2,13.9,7.2,22.2
		c1.2,1.9,8.6-13.5,3.8-25.3c-4.8-11.8-5.9-13.5-7.7-22.1c-1.8-8.6-2.8-15-4.4-19.2C656.1,124.1,657.4,128,658.5,132.7z
		 M666.1,178.2c0.2,4.3,0.3,12.5-0.7,11.9c-1.9-1.1-1.7-3.4-1.7-3.4c0.4-3.4,1.4-9.7,1.5-11.2C665.5,174.1,665.9,173.9,666.1,178.2z
		"/>
	<path class="st1" d="M630.6,126.6c2.6,4,11.2,17.8,12.4,21.1c1.2,3.3,1,11.7,1.3,16.8c0.5,9.3,6.5,12.5,14.2,18.5
		c1.8,1.4,3.6-15.6-4.8-25.1c-8.4-9.5-10.1-10.7-14.6-18.3c-4.5-7.6-7.6-13.2-10.5-16.6C625.4,119.3,628,122.5,630.6,126.6z
		 M652.9,167c1.7,4,4.4,11.7,3.3,11.5c-2.1-0.4-2.7-2.6-2.7-2.6c-0.8-3.3-1.9-9.6-2.3-11.1C650.9,163.3,651.3,163,652.9,167z"/>
</g>
<g>
	<path class="st1" d="M50.7,19.5c-5.1-5.3-9.8-9.1-13-13.1c1.1,6,3.6,12.5,8.5,17.2c11.9,11.3,14.2,12.7,20.7,22
		c6.5,9.3,10.9,16.2,15,20.3c4.3,4.3,0.7,0.5-3-4.5c-3.7-4.9-15.9-21.8-17.7-25.9c-1.8-4.1-1.7-15-2.3-21.6
		c-0.6-7.3-4.5-11.2-10-15.2C54.2,9.7,52.3,21.1,50.7,19.5z"/>
	<g>
		<g>
			<path class="st1" d="M30.3,57.1c-0.7-6.2-2.7-27-2.2-31.6C28.7,21,34.1,11,37,4.7c2.3-5.1,2.1-9.3,0.9-13.5
				C36.1-4,33.8,0.9,31.7,4.5c-2.8,4.8-2.9,9-3.3-4.7c-0.3-10.5,0.4-17.9,2.5-24.6C29.2-26.4,16.9-7.3,21.3,8
				c4.5,15.7,5.8,17.9,6.7,29.3C29,48.6,29.3,57,30.7,62.5C32.2,68.4,31.1,63.3,30.3,57.1z"/>
			<path class="st1" d="M94.8,27C90.6,22.5,75.9,7.6,72,5.1c-3.8-2.5-15-4.8-21.7-6.7c-5.4-1.5-8.5-4.3-10.9-8
				c4.8,1.8,10.1,3.1,14.1,3.8c5.5,0.9,8.8,3.6-1.5-5.6c-7.9-7-14-11.2-20.4-13.9c-0.2-2.2,22.3,0.5,31.2,13.8
				c9.1,13.5,10,16,18.1,24c8.1,8,14.3,13.6,17.6,18.3C102.3,35.8,99,31.6,94.8,27z"/>
		</g>
		<g>
			<path class="st1" d="M17.7,30C17,23.9,15,3,15.5-1.5c0.5-4.5,6-14.6,8.8-20.9c2.3-5.1,2.1-9.3,0.9-13.5
				c-1.7,4.8-4.1,9.7-6.2,13.3c-2.8,4.8-2.9,9-3.3-4.7c-0.3-10.5,0.4-17.9,2.5-24.6c-1.6-1.6-13.9,17.5-9.5,32.8
				c4.5,15.7,5.8,17.9,6.7,29.3c0.9,11.4,1.3,19.7,2.7,25.3C19.6,41.3,18.4,36.2,17.7,30z"/>
			<path class="st1" d="M82.2,0c-4.2-4.5-18.9-19.5-22.8-22c-3.8-2.5-15-4.8-21.7-6.7c-5.4-1.5-8.5-4.3-10.9-8
				c4.8,1.8,10.1,3.1,14.1,3.8c5.5,0.9,8.8,3.6-1.5-5.6c-7.9-7-14-11.2-20.4-13.9c-0.2-2.2,22.3,0.5,31.2,13.8
				c9.1,13.5,10,16,18.1,24c8.1,8,14.3,13.6,17.6,18.3C89.6,8.7,86.4,4.5,82.2,0z"/>
		</g>
		<g>
			<path class="st1" d="M5.4,3.7c-0.7-6.2-2.7-27-2.2-31.6c0.5-4.5,6-14.6,8.8-20.9c2.3-5.1,2.1-9.3,0.9-13.5
				c-1.7,4.8-4.1,9.7-6.2,13.3c-2.8,4.8-2.9,9-3.3-4.7C3.2-64.1,3.9-71.5,5.9-78.2C4.3-79.8-8-60.7-3.6-45.4
				c4.5,15.7,5.8,17.9,6.7,29.3C4.1-4.8,4.4,3.6,5.8,9.1C7.3,15,6.2,9.9,5.4,3.7z"/>
		</g>
	</g>
</g>
<g>
	<path class="st1" d="M169.4,32.6c-5.1-5.3-9.8-9.1-13-13.1c1.1,6,3.6,12.5,8.5,17.2c11.9,11.3,14.2,12.7,20.7,22
		c6.5,9.3,10.9,16.2,15,20.3c4.3,4.3,0.7,0.5-3-4.5c-3.7-4.9-15.9-21.8-17.7-25.9c-1.8-4.1-1.7-15-2.3-21.6
		c-0.6-7.3-4.5-11.2-10-15.2C172.9,22.9,171.1,34.3,169.4,32.6z"/>
	<g>
		<g>
			<path class="st1" d="M149.1,70.3c-0.7-6.2-2.7-27-2.2-31.6c0.5-4.5,6-14.6,8.8-20.9c2.3-5.1,2.1-9.3,0.9-13.5
				c-1.7,4.8-4.1,9.7-6.2,13.3c-2.8,4.8-2.9,9-3.3-4.7c-0.3-10.5,0.4-17.9,2.5-24.6c-1.6-1.6-13.9,17.5-9.5,32.8
				c4.5,15.7,5.8,17.9,6.7,29.3c0.9,11.4,1.3,19.7,2.7,25.3C151,81.6,149.8,76.4,149.1,70.3z"/>
			<path class="st1" d="M213.5,40.2c-4.2-4.5-18.9-19.5-22.8-22c-3.8-2.5-15-4.8-21.7-6.7c-5.4-1.5-8.5-4.3-10.9-8
				c4.8,1.8,10.1,3.1,14.1,3.8c5.5,0.9,8.8,3.6-1.5-5.6c-7.9-7-14-11.2-20.4-13.9c-0.2-2.2,22.3,0.5,31.2,13.8
				c9.1,13.5,10,16,18.1,24c8.1,8,14.3,13.6,17.6,18.3C221,48.9,217.8,44.8,213.5,40.2z"/>
			<path class="st1" d="M161,1c2.2,0.4,3.5,1.4-0.6-2.2c-3-2.7-5.4-4.3-7.9-5.4c-0.8,2.6-1,5.5-0.9,9.5c0.2,5.4,0.2,3.8,1.3,1.9
				c0.8-1.4,1.8-3.4,2.4-5.3C157.3,0.1,159.4,0.7,161,1z"/>
		</g>
		<g>
			<path class="st1" d="M136.5,43.2c-0.7-6.2-2.7-27-2.2-31.5c0.5-4.5,6-14.6,8.8-20.9c2.3-5.1,2.1-9.3,0.9-13.5
				c-1.7,4.8-4.1,9.7-6.2,13.3c-2.8,4.8-2.9,9-3.3-4.7c-0.3-10.5,0.4-17.9,2.5-24.6c-1.6-1.6-13.9,17.5-9.5,32.8
				c4.5,15.7,5.8,17.9,6.7,29.3c0.9,11.4,1.3,19.7,2.7,25.3C138.3,54.5,137.2,49.4,136.5,43.2z"/>
			<path class="st1" d="M200.9,13.1c-4.2-4.5-18.9-19.5-22.8-22c-3.8-2.5-15-4.8-21.7-6.7c-5.4-1.5-8.5-4.3-10.9-8
				c4.8,1.8,10.1,3.1,14.1,3.8c5.5,0.9,8.8,3.6-1.5-5.6c-7.9-7-14-11.2-20.4-13.9c-0.2-2.2,22.3,0.5,31.2,13.8
				c9.1,13.5,10,16,18.1,24c8.1,8,14.3,13.6,17.6,18.3C208.4,21.9,205.2,17.7,200.9,13.1z"/>
		</g>
		<g>
			<path class="st1" d="M124.2,16.9c-0.7-6.2-2.7-27-2.2-31.6c0.5-4.5,6-14.6,8.8-20.9c2.3-5.1,2.1-9.3,0.9-13.5
				c-1.7,4.8-4.1,9.7-6.2,13.3c-2.8,4.8-2.9,9-3.3-4.7c-0.3-10.5,0.4-17.9,2.5-24.6c-1.6-1.6-13.9,17.5-9.5,32.8
				c4.5,15.7,5.8,17.9,6.7,29.3c0.9,11.4,1.3,19.7,2.7,25.3C126.1,28.2,124.9,23,124.2,16.9z"/>
		</g>
	</g>
	<line class="st0" x1="155.3" y1="-0.5" x2="-7.4" y2="-349.6"/>
</g>
<g>
	<path class="st1" d="M283.1,33.9c-5.1-5.3-9.8-9.1-13-13.1c1.1,6,3.6,12.5,8.5,17.2c11.9,11.3,14.2,12.7,20.7,22
		c6.5,9.3,10.9,16.2,15,20.3c4.3,4.3,0.7,0.5-3-4.5c-3.7-4.9-15.9-21.8-17.7-25.9c-1.8-4.1-1.7-15-2.3-21.6
		c-0.6-7.3-4.5-11.2-10-15.2C286.6,24.2,284.7,35.6,283.1,33.9z"/>
	<g>
		<g>
			<path class="st1" d="M262.7,71.6c-0.7-6.2-2.7-27-2.2-31.6c0.5-4.5,6-14.6,8.8-20.9c2.3-5.1,2.1-9.3,0.9-13.5
				c-1.7,4.8-4.1,9.7-6.2,13.3c-2.8,4.8-2.9,9-3.3-4.7c-0.3-10.5,0.4-17.9,2.5-24.6c-1.6-1.6-13.9,17.5-9.5,32.8
				c4.5,15.7,5.8,17.9,6.7,29.3c0.9,11.4,1.3,19.7,2.7,25.3C264.6,82.9,263.5,77.7,262.7,71.6z"/>
			<path class="st1" d="M327.2,41.5c-4.2-4.5-18.9-19.5-22.8-22c-3.8-2.5-15-4.8-21.7-6.7c-5.4-1.5-8.5-4.3-10.9-8
				c4.8,1.8,10.1,3.1,14.1,3.8c5.5,0.9,8.8,3.6-1.5-5.6c-7.9-7-14-11.2-20.4-13.9C264-13,286.5-10.2,295.4,3c9.1,13.5,10,16,18.1,24
				c8.1,8,14.3,13.6,17.6,18.3C334.7,50.2,331.4,46.1,327.2,41.5z"/>
			<path class="st1" d="M274.7,2.3c2.2,0.4,3.5,1.4-0.6-2.2c-3-2.7-5.4-4.3-7.9-5.4c-0.8,2.6-1,5.5-0.9,9.5c0.2,5.4,0.2,3.8,1.3,1.9
				c0.8-1.4,1.8-3.4,2.4-5.3C271,1.5,273.1,2,274.7,2.3z"/>
		</g>
		<g>
			<path class="st1" d="M250.1,44.5c-0.7-6.2-2.7-27-2.2-31.5c0.5-4.5,6-14.6,8.8-20.9c2.3-5.1,2.1-9.3,0.9-13.5
				c-1.7,4.8-4.1,9.7-6.2,13.3c-2.8,4.8-2.9,9-3.3-4.7c-0.3-10.5,0.4-17.9,2.5-24.6c-1.6-1.6-13.9,17.5-9.5,32.8
				c4.5,15.7,5.8,17.9,6.7,29.3c0.9,11.4,1.3,19.7,2.7,25.3C252,55.8,250.9,50.7,250.1,44.5z"/>
			<path class="st1" d="M314.6,14.5c-4.2-4.5-18.9-19.5-22.8-22c-3.8-2.5-15-4.8-21.7-6.7c-5.4-1.5-8.5-4.3-10.9-8
				c4.8,1.8,10.1,3.1,14.1,3.8c5.5,0.9,8.8,3.6-1.5-5.6c-7.9-7-14-11.2-20.4-13.9c-0.2-2.2,22.3,0.5,31.2,13.8
				c9.1,13.5,10,16,18.1,24c8.1,8,14.3,13.6,17.6,18.3C322,23.2,318.8,19,314.6,14.5z"/>
		</g>
		<g>
			<path class="st1" d="M237.8,18.2c-0.7-6.2-2.7-27-2.2-31.6c0.5-4.5,6-14.6,8.8-20.9c2.3-5.1,2.1-9.3,0.9-13.5
				c-1.7,4.8-4.1,9.7-6.2,13.3c-2.8,4.8-2.9,9-3.3-4.7c-0.3-10.5,0.4-17.9,2.5-24.6c-1.6-1.6-13.9,17.5-9.5,32.8
				c4.5,15.7,5.8,17.9,6.7,29.3c0.9,11.4,1.3,19.7,2.7,25.3C239.7,29.5,238.6,24.4,237.8,18.2z"/>
		</g>
	</g>
	<line class="st0" x1="269" y1="0.8" x2="106.2" y2="-348.3"/>
</g>
<g>
	<path class="st1" d="M373.9,33.5c-5.1-5.3-9.8-9.1-13-13.1c1.1,6,3.6,12.5,8.5,17.2c11.9,11.3,14.2,12.7,20.7,22
		c6.5,9.3,10.9,16.2,15,20.3c4.3,4.3,0.7,0.5-3-4.5c-3.7-4.9-15.9-21.8-17.7-25.9c-1.8-4.1-1.7-15-2.3-21.6
		c-0.6-7.3-4.5-11.2-10-15.2C377.3,23.7,375.5,35.2,373.9,33.5z"/>
	<g>
		<g>
			<path class="st1" d="M353.5,71.1c-0.7-6.2-2.7-27-2.2-31.6c0.5-4.5,6-14.6,8.8-20.9c2.3-5.1,2.1-9.3,0.9-13.5
				c-1.7,4.8-4.1,9.7-6.2,13.3c-2.8,4.8-2.9,9-3.3-4.7c-0.3-10.5,0.4-17.9,2.5-24.6c-1.6-1.6-13.9,17.5-9.5,32.8
				c4.5,15.7,5.8,17.9,6.7,29.3c0.9,11.4,1.3,19.7,2.7,25.3C355.4,82.5,354.3,77.3,353.5,71.1z"/>
			<path class="st1" d="M418,41.1c-4.2-4.5-18.9-19.5-22.8-22c-3.8-2.5-15-4.8-21.7-6.7c-5.4-1.5-8.5-4.3-10.9-8
				c4.8,1.8,10.1,3.1,14.1,3.8c5.5,0.9,8.8,3.6-1.5-5.6c-7.9-7-14-11.2-20.4-13.9c-0.2-2.2,22.3,0.5,31.2,13.8
				c9.1,13.5,10,16,18.1,24c8.1,8,14.3,13.6,17.6,18.3C425.5,49.8,422.2,45.6,418,41.1z"/>
			<path class="st1" d="M365.5,1.8c2.2,0.4,3.5,1.4-0.6-2.2c-3-2.7-5.4-4.3-7.9-5.4c-0.8,2.6-1,5.5-0.9,9.5c0.2,5.4,0.2,3.8,1.3,1.9
				c0.8-1.4,1.8-3.4,2.4-5.3C361.7,1,363.8,1.5,365.5,1.8z"/>
		</g>
		<g>
			<path class="st1" d="M340.9,44.1c-0.7-6.2-2.7-27-2.2-31.5c0.5-4.5,6-14.6,8.8-20.9c2.3-5.1,2.1-9.3,0.9-13.5
				c-1.7,4.8-4.1,9.7-6.2,13.3c-2.8,4.8-2.9,9-3.3-4.7c-0.3-10.5,0.4-17.9,2.5-24.6c-1.6-1.6-13.9,17.5-9.5,32.8
				c4.5,15.7,5.8,17.9,6.7,29.3c0.9,11.4,1.3,19.7,2.7,25.3C342.8,55.4,341.6,50.2,340.9,44.1z"/>
			<path class="st1" d="M405.4,14c-4.2-4.5-18.9-19.5-22.8-22c-3.8-2.5-15-4.8-21.7-6.7c-5.4-1.5-8.5-4.3-10.9-8
				c4.8,1.8,10.1,3.1,14.1,3.8c5.5,0.9,8.8,3.6-1.5-5.6c-7.9-7-14-11.2-20.4-13.9c-0.2-2.2,22.3,0.5,31.2,13.8
				c9.1,13.5,10,16,18.1,24c8.1,8,14.3,13.6,17.6,18.3C412.8,22.7,409.6,18.5,405.4,14z"/>
		</g>
		<g>
			<path class="st1" d="M328.6,17.8c-0.7-6.2-2.7-27-2.2-31.6c0.5-4.5,6-14.6,8.8-20.9c2.3-5.1,2.1-9.3,0.9-13.5
				c-1.7,4.8-4.1,9.7-6.2,13.3c-2.8,4.8-2.9,9-3.3-4.7c-0.3-10.5,0.4-17.9,2.5-24.6c-1.6-1.6-13.9,17.5-9.5,32.8
				c4.5,15.7,5.8,17.9,6.7,29.3c0.9,11.4,1.3,19.7,2.7,25.3C330.5,29.1,329.4,23.9,328.6,17.8z"/>
		</g>
	</g>
	<line class="st0" x1="359.8" y1="0.3" x2="197" y2="-348.7"/>
</g>
<g>
	<path class="st1" d="M443.4,27.9c1.9-7.1,2.9-13.1,4.7-17.9c-4.6,4-9,9.5-10.5,16.1c-3.7,16-3.7,18.7-8.4,29
		c-4.7,10.3-8.4,17.6-9.9,23.2c-1.6,5.9,0,0.8,2.3-4.9c2.3-5.7,10.7-24.8,13.3-28.4c2.6-3.6,12.1-9.1,17.5-12.9
		c6-4.3,7.4-9.6,8-16.3C453.6,26,442.8,30.2,443.4,27.9z"/>
	<g>
		<g>
			<path class="st1" d="M400.7,29.5c4.9-3.8,21.9-16.1,26.1-17.9c4.2-1.8,15.6-2.2,22.5-3c5.5-0.6,9.1-2.8,12.1-6.1
				c-5,1-10.4,1.4-14.6,1.4c-5.5,0-9.3,2.1,2.4-5.2c8.9-5.6,15.6-8.7,22.4-10.3c0.6-2.2-22.1-3.2-33.1,8.4
				c-11.2,11.8-12.5,14.1-21.8,20.6c-9.3,6.6-16.3,11.1-20.4,15.1C391.9,36.8,395.8,33.2,400.7,29.5z"/>
			<path class="st1" d="M459.3,69.8c1.8-6,7.2-26.2,7.4-30.7c0.2-4.6-3.5-15.4-5.2-22.1c-1.4-5.4-0.6-9.5,1.4-13.4
				c0.9,5,2.4,10.3,3.9,14.1c2,5.2,1.4,9.4,4.1-4.1c2-10.3,2.6-17.7,1.6-24.6c1.8-1.3,10.9,19.5,3.9,33.9
				c-7.1,14.7-8.7,16.7-11.5,27.8c-2.8,11-4.5,19.2-6.8,24.5C455.5,80.6,457.5,75.8,459.3,69.8z"/>
			<path class="st1" d="M466.5,4.6c0.8,2.1,0.6,3.7,1.6-1.6c0.8-4,1-6.9,0.7-9.5c-2.6,0.6-5.2,1.9-8.7,4c-4.6,2.9-3.1,2.1-0.9,2.1
				c1.6,0,3.8-0.2,5.8-0.6C465.3,1,465.9,3.1,466.5,4.6z"/>
		</g>
		<g>
			<path class="st1" d="M417.6,4.9c4.9-3.8,21.9-16.1,26.1-17.9c4.2-1.8,15.6-2.2,22.5-3c5.5-0.6,9.1-2.8,12.1-6.1
				c-5,1-10.4,1.4-14.6,1.4c-5.5,0-9.3,2.1,2.4-5.2c8.9-5.6,15.6-8.7,22.4-10.3c0.6-2.2-22.1-3.2-33.1,8.4
				C444.2-16,442.9-13.7,433.6-7.2c-9.3,6.6-16.3,11.1-20.4,15.1C408.8,12.2,412.7,8.6,417.6,4.9z"/>
			<path class="st1" d="M476.2,45.2c1.8-6,7.2-26.2,7.4-30.7c0.2-4.6-3.5-15.4-5.2-22.1c-1.4-5.4-0.6-9.5,1.4-13.4
				c0.9,5,2.4,10.3,3.9,14.1c2,5.2,1.4,9.4,4.1-4.1c2-10.3,2.6-17.7,1.6-24.6c1.8-1.3,10.9,19.5,3.9,33.9
				c-7.1,14.7-8.7,16.7-11.5,27.8c-2.8,11-4.5,19.2-6.8,24.5C472.5,56,474.5,51.1,476.2,45.2z"/>
		</g>
		<g>
			<path class="st1" d="M492.7,21.3c1.8-6,7.2-26.2,7.4-30.7c0.2-4.6-3.5-15.4-5.2-22.1c-1.4-5.4-0.6-9.5,1.4-13.4
				c0.9,5,2.4,10.3,3.9,14.1c2,5.2,1.4,9.4,4.1-4.1c2-10.3,2.6-17.7,1.6-24.6c1.8-1.3,10.9,19.5,3.9,33.9
				C502.7-11,501-8.9,498.2,2.1c-2.8,11-4.5,19.2-6.8,24.5C489,32.1,490.9,27.2,492.7,21.3z"/>
		</g>
		<g>
			<path class="st1" d="M509.6-3.3c1.8-6,7.2-26.2,7.4-30.7c0.2-4.6-3.5-15.4-5.2-22.1c-1.4-5.4-0.6-9.5,1.4-13.4
				c0.9,5,2.4,10.3,3.9,14.1c2,5.2,1.4,9.4,4.1-4.1c2-10.3,2.6-17.7,1.6-24.6c1.8-1.3,10.9,19.5,3.9,33.9
				c-7.1,14.7-8.7,16.7-11.5,27.8c-2.8,11-4.5,19.2-6.8,24.5C505.9,7.5,507.9,2.6,509.6-3.3z"/>
		</g>
	</g>
</g>
<g>
	<path class="st1" d="M637.6,49.2c2.3-7,3.6-12.9,5.7-17.6c-4.8,3.7-9.5,8.9-11.4,15.4c-4.6,15.8-4.8,18.5-10.1,28.5
		c-5.3,10-9.4,17.1-11.2,22.6c-1.9,5.8-0.1,0.8,2.6-4.7c2.7-5.6,12.1-24.1,15-27.5c2.8-3.4,12.6-8.4,18.2-11.9
		c6.3-3.9,7.9-9.1,8.9-15.8C647.9,47.8,636.9,51.4,637.6,49.2z"/>
	<g>
		<g>
			<path class="st1" d="M594.9,48.2c5.1-3.5,22.8-14.7,27.1-16.3c4.3-1.6,15.7-1.3,22.6-1.7c5.6-0.3,9.2-2.3,12.4-5.4
				c-5,0.7-10.5,0.8-14.6,0.6c-5.5-0.4-9.4,1.5,2.7-5.1c9.2-5.1,16.1-7.8,23-9c0.7-2.1-21.9-4.5-33.5,6.4
				c-11.9,11.2-13.3,13.3-23,19.3c-9.7,6-17,10.1-21.3,13.9C585.6,55.1,589.7,51.7,594.9,48.2z"/>
			<path class="st1" d="M651,91.9c2.1-5.8,8.7-25.7,9.2-30.3c0.5-4.5-2.6-15.5-3.9-22.3c-1.1-5.5,0-9.5,2.2-13.3
				c0.6,5,1.8,10.4,3,14.3c1.7,5.3,0.8,9.5,4.3-3.8c2.6-10.2,3.6-17.5,3.1-24.5c1.9-1.2,9.7,20.1,2,34.1c-7.9,14.3-9.7,16.2-13.1,27
				c-3.4,10.9-5.6,18.9-8.2,24C646.6,102.5,648.9,97.8,651,91.9z"/>
			<path class="st1" d="M662,27.3c0.7,2.1,0.3,3.8,1.7-1.5c1-3.9,1.4-6.8,1.2-9.5c-2.6,0.5-5.3,1.6-8.9,3.5c-4.8,2.6-3.3,1.9-1.1,2
				c1.6,0.1,3.8,0,5.8-0.2C661,23.6,661.5,25.7,662,27.3z"/>
		</g>
		<g>
			<path class="st1" d="M613.2,24.7c5.1-3.5,22.8-14.7,27.1-16.3c4.3-1.6,15.7-1.3,22.6-1.7c5.6-0.3,9.2-2.3,12.4-5.4
				c-5,0.7-10.5,0.8-14.6,0.6c-5.5-0.4-9.4,1.5,2.7-5.1c9.2-5.1,16.1-7.8,23-9c0.7-2.1-21.9-4.5-33.5,6.4
				c-11.9,11.2-13.3,13.3-23,19.3c-9.7,6-17,10.1-21.3,13.9C604,31.5,608.1,28.1,613.2,24.7z"/>
			<path class="st1" d="M669.3,68.3c2.1-5.8,8.7-25.7,9.2-30.3c0.5-4.5-2.6-15.5-3.9-22.3c-1.1-5.5,0-9.5,2.2-13.3
				c0.6,5,1.8,10.4,3,14.3c1.7,5.3,0.8,9.5,4.3-3.8c2.6-10.2,3.6-17.5,3.1-24.5c1.9-1.2,9.7,20.1,2,34.1c-7.9,14.3-9.7,16.2-13.1,27
				c-3.4,10.9-5.6,18.9-8.2,24C665,79,667.2,74.2,669.3,68.3z"/>
			<path class="st1" d="M680.4,3.7c0.7,2.1,0.3,3.8,1.7-1.5c1-3.9,1.4-6.8,1.2-9.5c-2.6,0.5-5.3,1.6-8.9,3.5c-4.8,2.6-3.3,1.9-1.1,2
				c1.6,0.1,3.8,0.1,5.8-0.2C679.4,0,679.9,2.1,680.4,3.7z"/>
		</g>
		<g>
			<path class="st1" d="M631,1.7c5.1-3.5,22.8-14.7,27.1-16.3c4.3-1.6,15.7-1.3,22.6-1.7c5.6-0.3,9.2-2.3,12.4-5.4
				c-5,0.7-10.5,0.8-14.6,0.6c-5.5-0.4-9.4,1.5,2.7-5.1c9.2-5.1,16.1-7.8,23-9c0.7-2.1-21.9-4.5-33.5,6.4
				c-11.9,11.2-13.3,13.3-23,19.3c-9.7,6-17,10.1-21.3,13.9C621.8,8.6,625.9,5.2,631,1.7z"/>
			<path class="st1" d="M687.2,45.4c2.1-5.8,8.7-25.7,9.2-30.3c0.5-4.5-2.6-15.5-3.9-22.3c-1.1-5.5,0-9.5,2.2-13.3
				c0.6,5,1.8,10.4,3,14.3c1.7,5.3,0.8,9.5,4.3-3.8c2.6-10.2,3.6-17.5,3.1-24.5c1.9-1.2,9.7,20.1,2,34.1c-7.9,14.3-9.7,16.2-13.1,27
				c-3.4,10.9-5.6,18.9-8.2,24C682.8,56.1,685.1,51.3,687.2,45.4z"/>
		</g>
		<g>
			<path class="st1" d="M705.5,21.9c2.1-5.8,8.7-25.7,9.2-30.3c0.5-4.5-2.6-15.5-3.9-22.3c-1.1-5.5,0-9.5,2.2-13.3
				c0.6,5,1.8,10.4,3,14.3c1.7,5.3,0.8,9.5,4.3-3.8c2.6-10.2,3.6-17.5,3.1-24.5c1.9-1.2,9.7,20.1,2,34.1c-7.9,14.3-9.7,16.2-13.1,27
				c-3.4,10.9-5.6,18.9-8.2,24C701.2,32.5,703.4,27.7,705.5,21.9z"/>
		</g>
		<g>
			<path class="st1" d="M723-0.6c2.1-5.8,8.7-25.7,9.2-30.3c0.5-4.5-2.6-15.5-3.9-22.3c-1.1-5.5,0-9.5,2.2-13.3
				c0.6,5,1.8,10.4,3,14.3c1.7,5.3,0.8,9.5,4.3-3.8c2.6-10.2,3.6-17.5,3.1-24.5c1.9-1.2,9.7,20.1,2,34.1c-7.9,14.3-9.7,16.2-13.1,27
				c-3.4,10.9-5.6,18.9-8.2,24C718.6,10,720.9,5.3,723-0.6z"/>
		</g>
	</g>
	<line class="st0" x1="660.7" y1="21.5" x2="897.3" y2="-282.4"/>
</g>
<g>
	<path class="st1" d="M773.5,32.6c4-6.1,6.8-11.5,10-15.5c-5.6,2.3-11.5,6.2-15,12c-8.5,14.1-9.4,16.6-17,24.9
		c-7.7,8.3-13.5,14.1-16.7,19c-3.3,5.1-0.3,0.8,3.7-3.9c4-4.7,17.9-20.2,21.5-22.8c3.6-2.6,14.3-4.9,20.7-6.8c7-2.2,10-6.8,12.7-13
		C783.8,34,772.2,34.6,773.5,32.6z"/>
	<g>
		<g>
			<path class="st1" d="M732.4,20.8c5.9-2,25.8-8.4,30.4-8.9c4.5-0.4,15.5,2.8,22.3,4.2c5.5,1.1,9.5,0.1,13.4-2
				c-5-0.6-10.4-1.9-14.3-3.2c-5.3-1.8-9.5-0.9,3.9-4.2c10.2-2.5,17.6-3.4,24.5-2.8c1.2-1.9-20-9.9-34-2.3
				c-14.3,7.8-16.3,9.5-27.2,12.8c-10.9,3.3-19,5.4-24.1,8C721.7,25,726.5,22.8,732.4,20.8z"/>
			<path class="st1" d="M775.5,77.4c3.5-5.1,15-22.7,16.6-26.9c1.6-4.3,1.5-15.7,1.9-22.6c0.4-5.6,2.4-9.2,5.5-12.3
				c-0.7,5-0.9,10.5-0.7,14.6c0.3,5.5-1.6,9.4,5.1-2.6c5.2-9.2,8-16,9.2-22.9c2.1-0.7,4.2,21.9-6.8,33.4
				c-11.3,11.8-13.5,13.2-19.6,22.8c-6.1,9.6-10.3,16.9-14.1,21.1C768.5,86.5,771.9,82.5,775.5,77.4z"/>
			<path class="st1" d="M802.7,17.7c0.1,2.2-0.6,3.7,2-1c2-3.5,3.1-6.2,3.6-8.8c-2.7-0.2-5.6,0.2-9.5,1.1c-5.3,1.3-3.6,1-1.5,1.7
				c1.6,0.5,3.7,1,5.7,1.3C802.7,13.9,802.6,16.1,802.7,17.7z"/>
		</g>
		<g>
			<path class="st1" d="M756.2,2.7c5.9-2,25.8-8.4,30.4-8.9C791-6.6,802-3.4,808.8-2c5.5,1.1,9.5,0.1,13.4-2
				c-5-0.6-10.4-1.9-14.3-3.2c-5.3-1.8-9.5-0.9,3.9-4.2c10.2-2.5,17.6-3.4,24.5-2.8c1.2-1.9-20-9.9-34-2.3
				C787.9-8.8,785.9-7.1,775-3.8c-10.9,3.3-19,5.4-24.1,8C745.5,6.9,750.3,4.7,756.2,2.7z"/>
			<path class="st1" d="M799.2,59.3c3.5-5.1,15-22.7,16.6-26.9c1.6-4.3,1.5-15.7,1.9-22.6c0.4-5.6,2.4-9.2,5.5-12.3
				c-0.7,5-0.9,10.5-0.7,14.6c0.3,5.5-1.6,9.4,5.1-2.6c5.2-9.2,8-16,9.2-22.9c2.1-0.7,4.2,21.9-6.8,33.4
				c-11.3,11.8-13.5,13.2-19.6,22.8c-6.1,9.6-10.3,16.9-14.1,21.1C792.3,68.4,795.7,64.4,799.2,59.3z"/>
			<path class="st1" d="M826.4-0.4c0.1,2.2-0.6,3.7,2-1c2-3.5,3.1-6.2,3.6-8.8c-2.7-0.2-5.6,0.2-9.5,1.1c-5.3,1.3-3.6,1-1.5,1.7
				c1.6,0.5,3.7,1,5.7,1.3C826.4-4.2,826.4-2,826.4-0.4z"/>
		</g>
		<g>
			<path class="st1" d="M822.3,41.7c3.5-5.1,15-22.7,16.6-26.9c1.6-4.3,1.5-15.7,1.9-22.6c0.4-5.6,2.4-9.2,5.5-12.3
				c-0.7,5-0.9,10.5-0.7,14.6c0.3,5.5-1.6,9.4,5.1-2.6c5.2-9.2,8-16,9.2-22.9c2.1-0.7,4.2,21.9-6.8,33.4
				c-11.3,11.8-13.5,13.2-19.6,22.8c-6.1,9.6-10.3,16.9-14.1,21.1C815.4,50.8,818.8,46.8,822.3,41.7z"/>
		</g>
		<g>
			<path class="st1" d="M846.1,23.6c3.5-5.1,15-22.7,16.6-26.9c1.6-4.3,1.5-15.7,1.9-22.6c0.4-5.6,2.4-9.2,5.5-12.3
				c-0.7,5-0.9,10.5-0.7,14.6c0.3,5.5-1.6,9.4,5.1-2.6c5.2-9.2,8-16,9.2-22.9c2.1-0.7,4.2,21.9-6.8,33.4
				C865.7-3.9,863.5-2.5,857.4,7.1c-6.1,9.6-10.3,16.9-14.1,21.1C839.2,32.7,842.6,28.7,846.1,23.6z"/>
		</g>
		<g>
		</g>
	</g>
	<line class="st0" x1="802.9" y1="11.8" x2="1109.3" y2="-221.5"/>
</g>
<g>
	<path class="st1" d="M570.3,3.9c2.3-7,3.6-12.9,5.7-17.6c-4.8,3.7-9.5,8.9-11.4,15.4c-4.6,15.8-4.8,18.5-10.1,28.5
		c-5.3,10-9.4,17.1-11.2,22.6c-1.9,5.8-0.1,0.8,2.6-4.7c2.7-5.6,12.1-24.1,15-27.5c2.8-3.4,12.6-8.4,18.2-11.9
		c6.3-3.9,7.9-9.1,8.9-15.8C580.6,2.6,569.6,6.2,570.3,3.9z"/>
	<g>
		<g>
			<path class="st1" d="M527.5,3c5.1-3.5,22.8-14.7,27.1-16.3c4.3-1.6,15.7-1.3,22.6-1.7c5.6-0.3,9.2-2.3,12.4-5.4
				c-5,0.7-10.5,0.8-14.6,0.6c-5.5-0.4-9.4,1.5,2.7-5.1c9.2-5.1,16.1-7.8,23-9c0.7-2.1-21.9-4.5-33.5,6.4
				c-11.9,11.2-13.3,13.3-23,19.3c-9.7,6-17,10.1-21.3,13.9C518.3,9.8,522.4,6.4,527.5,3z"/>
			<path class="st1" d="M583.7,46.6c2.1-5.8,8.7-25.7,9.2-30.3c0.5-4.5-2.6-15.5-3.9-22.3c-1.1-5.5,0-9.5,2.2-13.3
				c0.6,5,1.8,10.4,3,14.3c1.7,5.3,0.8,9.5,4.3-3.8c2.6-10.2,3.6-17.5,3.1-24.5c1.9-1.2,9.7,20.1,2,34.1c-7.9,14.3-9.7,16.2-13.1,27
				c-3.4,10.9-5.6,18.9-8.2,24C579.3,57.3,581.5,52.5,583.7,46.6z"/>
		</g>
		<g>
			<path class="st1" d="M602,23.1c2.1-5.8,8.7-25.7,9.2-30.3c0.5-4.5-2.6-15.5-3.9-22.3c-1.1-5.5,0-9.5,2.2-13.3
				c0.6,5,1.8,10.4,3,14.3c1.7,5.3,0.8,9.5,4.3-3.8c2.6-10.2,3.6-17.5,3.1-24.5c1.9-1.2,9.7,20.1,2,34.1c-7.9,14.3-9.7,16.2-13.1,27
				c-3.4,10.9-5.6,18.9-8.2,24C597.7,33.7,599.9,28.9,602,23.1z"/>
		</g>
		<g>
			<path class="st1" d="M619.8,0.2c2.1-5.8,8.7-25.7,9.2-30.3c0.5-4.5-2.6-15.5-3.9-22.3c-1.1-5.5,0-9.5,2.2-13.3
				c0.6,5,1.8,10.4,3,14.3c1.7,5.3,0.8,9.5,4.3-3.8c2.6-10.2,3.6-17.5,3.1-24.5c1.9-1.2,9.7,20.1,2,34.1c-7.9,14.3-9.7,16.2-13.1,27
				c-3.4,10.9-5.6,18.9-8.2,24C615.5,10.8,617.7,6,619.8,0.2z"/>
		</g>
	</g>
</g>
</svg>
